<svg xmlns="http://www.w3.org/2000/svg" xmlns:xlink="http://www.w3.org/1999/xlink" width="35" height="35" viewBox="0 0 35 35"><defs><style>.a{fill:#e64f1e;}.b{clip-path:url(#a);}</style><clipPath id="a"><rect class="a" width="35" height="35" transform="translate(0 0.394)"/></clipPath></defs><g class="b" transform="translate(0 -0.394)"><g transform="translate(0 5.444)"><g transform="translate(23.434 4.481)"><path class="a" d="M19.886,16.343,31.8,23.877V8.49Z" transform="translate(-19.886 -8.49)"/></g><g transform="translate(0 4.481)"><path class="a" d="M0,8.49V23.877l11.918-7.534Z" transform="translate(0 -8.49)"/></g><g transform="translate(0.066)"><path class="a" d="M33.133,4.688H2.2A2.182,2.182,0,0,0,.056,6.568l17.61,11.6,17.61-11.6A2.182,2.182,0,0,0,33.133,4.688Z" transform="translate(-0.056 -4.688)"/></g><g transform="translate(0.071 13.666)"><path class="a" d="M21.4,16.287l-3.126,2.059a1.109,1.109,0,0,1-1.215,0l-3.126-2.061L.06,25.058A2.179,2.179,0,0,0,2.2,26.923H33.132a2.179,2.179,0,0,0,2.139-1.865Z" transform="translate(-0.06 -16.284)"/></g></g></g></svg>