<svg xmlns="http://www.w3.org/2000/svg" xmlns:xlink="http://www.w3.org/1999/xlink" width="35" height="35" viewBox="0 0 35 35"><defs><style>.a{fill:#e64f1e;}.b{clip-path:url(#a);}</style><clipPath id="a"><rect class="a" width="35" height="35"/></clipPath></defs><g class="b"><g transform="translate(0.037 0)"><path class="a" d="M34.384,25.945l-4.933-4.933a3.281,3.281,0,0,0-5.462,1.233,3.357,3.357,0,0,1-3.876,2.114c-3.524-.881-8.281-5.462-9.162-9.162a3.193,3.193,0,0,1,2.114-3.876A3.281,3.281,0,0,0,14.3,5.859L9.364.925a3.519,3.519,0,0,0-4.757,0L1.259,4.273C-2.088,7.8,1.612,17.135,9.893,25.416s17.62,12.158,21.144,8.634L34.384,30.7A3.519,3.519,0,0,0,34.384,25.945Z" transform="translate(-0.031 0)"/></g></g></svg>