<svg xmlns="http://www.w3.org/2000/svg" xmlns:xlink="http://www.w3.org/1999/xlink" width="30" height="30" viewBox="0 0 30 30"><defs><style>.a{fill:#fff;stroke:#707070;}.b{clip-path:url(#a);}</style><clipPath id="a"><rect class="a" width="30" height="30" transform="translate(208 1647)"/></clipPath></defs><g class="b" transform="translate(-208 -1647)"><g transform="translate(211.535 1647)"><path d="M21.764,12l1.116-3.434a.445.445,0,0,0-.162-.5L19.8,5.948,18.681,2.514a.445.445,0,0,0-.423-.307h-3.61L11.727.085a.445.445,0,0,0-.523,0L8.283,2.207H4.672a.445.445,0,0,0-.423.307L3.134,5.948.213,8.07a.445.445,0,0,0-.162.5L1.167,12,.051,15.435a.445.445,0,0,0,.162.5l2.921,2.122,1.116,3.434a.448.448,0,0,0,.261.277.721.721,0,0,0,.271.031L2.824,27.6a.448.448,0,0,0,.619.541l3.21-1.59,1.591,3.209a.448.448,0,0,0,.82-.055l1.989-5.9a.711.711,0,0,0,.413.2.712.712,0,0,0,.414-.2l1.989,5.9a.449.449,0,0,0,.82.055l1.59-3.209,3.21,1.59a.449.449,0,0,0,.619-.541l-1.957-5.8a.722.722,0,0,0,.271-.031.447.447,0,0,0,.261-.277L19.8,18.055l2.921-2.122a.444.444,0,0,0,.162-.5ZM8.563,28.4,7.252,25.755a.445.445,0,0,0-.6-.2L4.01,26.865,5.72,21.8H8.283L10.3,23.26ZM18.92,26.865l-2.646-1.311a.449.449,0,0,0-.6.2L14.367,28.4,12.633,23.26,14.647,21.8H17.21Zm.237-9.445a.445.445,0,0,0-.162.222l-1.061,3.264H14.5a.445.445,0,0,0-.261.085l-2.776,2.017L8.689,20.991a.445.445,0,0,0-.261-.085H5l-1.06-3.264a.445.445,0,0,0-.162-.222L1,15.4l1.06-3.264a.445.445,0,0,0,0-.275L1,8.6,3.774,6.583a.445.445,0,0,0,.162-.222L5,3.1H8.427a.444.444,0,0,0,.261-.085L11.465.995l2.776,2.017A.444.444,0,0,0,14.5,3.1h3.432L19,6.361a.445.445,0,0,0,.162.222L21.933,8.6l-1.06,3.264a.445.445,0,0,0,0,.275l1.06,3.264Zm0,0"/><path d="M17.184,5.7a.445.445,0,1,0-.6.659,7.6,7.6,0,1,1-1.519-1.073.445.445,0,0,0,.421-.784,8.525,8.525,0,1,0,1.7,1.2Zm0,0"/><path d="M6.838,8.413l-1.424,1.9a.445.445,0,0,0,.018.557l5.695,6.644a.45.45,0,0,0,.676,0L17.5,10.867a.445.445,0,0,0,.018-.557l-1.424-1.9a.445.445,0,0,0-.356-.178H7.194a.445.445,0,0,0-.356.178Zm1.495,2.61,1.861,4.033L6.738,11.023Zm4.333-1.9.756,1.008H9.508l.756-1.008Zm3.526,1.9-3.457,4.033L14.6,11.023Zm-2.576,0-2.152,4.663L9.313,11.023Zm2.653-.89H14.535l-.756-1.008h1.735ZM9.152,9.124,8.4,10.133H6.66l.756-1.008Zm0,0"/></g></g></svg>