<svg xmlns="http://www.w3.org/2000/svg" xmlns:xlink="http://www.w3.org/1999/xlink" width="30" height="30" viewBox="0 0 30 30"><defs><style>.a{fill:#fff;}.b{clip-path:url(#a);}</style><clipPath id="a"><rect class="a" width="30" height="30" transform="translate(290 240)"/></clipPath></defs><g class="b" transform="translate(-290 -240)"><g transform="translate(287.857 237.857)"><path class="a" d="M19.286,23.571a1.609,1.609,0,0,0,1.607-1.607V20.357H17.679v1.607A1.609,1.609,0,0,0,19.286,23.571Z"/><path class="a" d="M25.714,12.857a8.571,8.571,0,1,0-14.24,6.429H22.811a8.557,8.557,0,0,0,2.9-6.429ZM21.807,12.7,20.2,14.308l-.758-.758.693-.693H17.143a.536.536,0,0,1-.536-.536V8.258l-.693.693-.758-.758,1.607-1.607a.536.536,0,0,1,.758,0l1.607,1.607-.758.758-.693-.693v3.528h2.457l-.693-.693.758-.758,1.607,1.607a.536.536,0,0,1,0,.758Z"/><path class="a" d="M15,23.571a1.609,1.609,0,0,0,1.607-1.607V20.357H13.393v1.607A1.609,1.609,0,0,0,15,23.571Z"/><path class="a" d="M12.321,21.964V20.357H9.107v1.607a1.607,1.607,0,1,0,3.214,0Z"/><path class="a" d="M21.429,23.57a2.676,2.676,0,0,1-4.286,0,2.676,2.676,0,0,1-4.286,0,2.676,2.676,0,0,1-2.143,1.073v7.5h3.75V26.25A.536.536,0,0,1,15,25.714h4.286a.536.536,0,0,1,.536.536v5.893h3.75v-7.5a2.676,2.676,0,0,1-2.143-1.073Z"/><path class="a" d="M15.536,26.786H18.75v5.357H15.536Z"/><path class="a" d="M17.143,2.143A10.715,10.715,0,0,0,8.57,19.285l1.385,0a9.643,9.643,0,1,1,14.374,0h1.384A10.714,10.714,0,0,0,17.143,2.143Z"/><path class="a" d="M21.964,21.964a1.607,1.607,0,1,0,3.214,0V20.357H21.964Z"/></g></g></svg>