<svg xmlns="http://www.w3.org/2000/svg" xmlns:xlink="http://www.w3.org/1999/xlink" width="30" height="30" viewBox="0 0 30 30"><defs><style>.a{fill:#fff;stroke:#707070;}.b{clip-path:url(#a);}</style><clipPath id="a"><rect class="a" width="30" height="30" transform="translate(208 1647)"/></clipPath></defs><g class="b" transform="translate(-208 -1647)"><g transform="translate(208 1647)"><path d="M26.113,7.255a1.064,1.064,0,0,0,.752-.311L29.81,4a.648.648,0,0,0-.417-1.1l-1.567-.1,1.023-1.023a.439.439,0,0,0-.622-.621L27.2,2.175l-.1-1.567A.648.648,0,0,0,26,.19L23.056,3.135a1.064,1.064,0,0,0-.309.818l.1,1.613a13.868,13.868,0,0,0-19.241,19.9.439.439,0,0,0,.65-.592A12.993,12.993,0,0,1,22.741,6.637L20.736,8.642A10.169,10.169,0,0,0,4.817,20.785h0A10.175,10.175,0,0,0,23.829,18.2a.439.439,0,1,0-.861-.178A9.3,9.3,0,0,1,5.6,20.383h0A9.175,9.175,0,0,1,4.57,16.134,9.287,9.287,0,0,1,20.115,9.264l-1.987,1.987a6.492,6.492,0,1,0,.622.622l1.987-1.987a9.256,9.256,0,0,1,2.425,6.195.439.439,0,0,0,.439.437h0a.44.44,0,0,0,.437-.442,10.133,10.133,0,0,0-2.683-6.812l2.005-2.005A12.994,12.994,0,0,1,5.7,26.231a.439.439,0,0,0-.553.683,13.866,13.866,0,0,0,22.587-10.78A13.753,13.753,0,0,0,25,7.875q-.277-.373-.576-.724c1.723.108,1.63.1,1.684.1Zm-6.642,8.879a5.612,5.612,0,1,1-1.967-4.26l-2,2a2.8,2.8,0,1,0,.622.622l2-2A5.581,5.581,0,0,1,19.471,16.134Zm-5.916.311a.439.439,0,0,0,.622,0l1.317-1.317a1.917,1.917,0,1,1-.622-.622l-1.317,1.317a.439.439,0,0,0,0,.621ZM23.624,3.9a.184.184,0,0,1,.054-.142L26.26,1.174,26.375,3,23.734,5.645Zm.731,2.368L27,3.625l1.829.115L26.243,6.322a.184.184,0,0,1-.142.054Z"/></g></g></svg>