<svg xmlns="http://www.w3.org/2000/svg" xmlns:xlink="http://www.w3.org/1999/xlink" viewBox="0 0 30 30"><defs><style>.a{fill:#fff;stroke:#707070;}.b{clip-path:url(#a);}</style><clipPath id="a"><rect class="a" width="30" height="30" transform="translate(208 1647)"/></clipPath></defs><g class="b" transform="translate(-208 -1647)"><g transform="translate(208 1647)"><path d="M9.169,17.343a.586.586,0,0,0,0-1.171H9.141a.586.586,0,0,0,0,1.172Z"/><path d="M19.292,11.954h0a6.377,6.377,0,0,0-3.818-1.624,6.458,6.458,0,0,0-6.405,3.9.586.586,0,0,0,1.08.456,5.287,5.287,0,0,1,5.235-3.19A5.223,5.223,0,0,1,19.9,18.654a5.119,5.119,0,0,1-5.009,3.376h-.053a5.281,5.281,0,0,1-4.689-3.2.586.586,0,1,0-1.078.46A6.469,6.469,0,0,0,15.053,23.2a6.284,6.284,0,0,0,5.941-4.129A6.278,6.278,0,0,0,19.292,11.954Z"/><path d="M15.059,18.474a1.06,1.06,0,0,1-.761-.443.586.586,0,0,0-.9.754,2.429,2.429,0,0,0,1.072.763v.684a.586.586,0,0,0,1.172,0v-.687a1.758,1.758,0,0,0-.586-3.415.586.586,0,1,1,0-1.172.941.941,0,0,1,.634.306.586.586,0,0,0,.815-.842,2.263,2.263,0,0,0-.863-.539V13.2a.586.586,0,0,0-1.172,0v.687a1.758,1.758,0,0,0,.586,3.415.586.586,0,1,1,0,1.172Z"/><path d="M1.014,11.579C2.573,9.908,8.188,4.453,15,4.453s12.427,5.454,13.986,7.126a.586.586,0,1,0,.857-.8c-3.8-4.073-9.244-7.5-14.843-7.5S3.957,6.7.157,10.78a.586.586,0,1,0,.857.8Z"/><path d="M25.509,11.633C22.589,9.033,18.908,6.8,15,6.8S7.409,9.034,4.491,11.633A31.6,31.6,0,0,0,.108,16.419a.586.586,0,0,0,0,.678,31.6,31.6,0,0,0,4.383,4.786c2.92,2.6,6.6,4.836,10.509,4.836s7.591-2.237,10.509-4.836A31.6,31.6,0,0,0,29.892,17.1a.586.586,0,0,0,0-.678A31.6,31.6,0,0,0,25.509,11.633Zm-.8,9.391C22.39,23.087,18.82,25.547,15,25.547s-7.39-2.46-9.712-4.523a31.909,31.909,0,0,1-3.971-4.266,31.9,31.9,0,0,1,3.971-4.266C7.61,10.428,11.18,7.969,15,7.969s7.39,2.46,9.712,4.523a31.9,31.9,0,0,1,3.971,4.266A31.9,31.9,0,0,1,24.712,21.024Z"/></g></g></svg>