<svg xmlns="http://www.w3.org/2000/svg" xmlns:xlink="http://www.w3.org/1999/xlink" viewBox="0 0 30 30"><defs><style>.a{fill:#fff;}.b{clip-path:url(#a);}</style><clipPath id="a"><rect class="a" width="30" height="30" transform="translate(290 240)"/></clipPath></defs><g class="b" transform="translate(-290 -240)"><g transform="translate(290 240)"><path class="a" d="M19.886,15.154,30,21.547V8.49Z"/><path class="a" d="M0,8.49V21.547l10.114-6.394Z"/><path class="a" d="M28.125,4.688H1.875a1.852,1.852,0,0,0-1.819,1.6L15,16.129,29.944,6.283A1.852,1.852,0,0,0,28.125,4.688Z"/><path class="a" d="M18.169,16.286l-2.653,1.748a.941.941,0,0,1-1.031,0l-2.653-1.749L.06,23.73a1.849,1.849,0,0,0,1.815,1.583h26.25A1.849,1.849,0,0,0,29.94,23.73Z"/></g></g></svg>