<svg xmlns="http://www.w3.org/2000/svg" xmlns:xlink="http://www.w3.org/1999/xlink" width="30" height="30" viewBox="0 0 30 30"><defs><style>.a,.c{fill:#fff;}.a{stroke:#707070;}.b{clip-path:url(#a);}.d{fill:#58585a;}</style><clipPath id="a"><rect class="a" width="30" height="30" transform="translate(1673 20)"/></clipPath></defs><g class="b" transform="translate(-1673 -20)"><g transform="translate(1673 20)"><circle class="c" cx="15" cy="15" r="15" transform="translate(0 0)"/><path class="d" d="M20.377,12.391c-4.333,0-4.338,4.316-4.338,4.338a4.01,4.01,0,0,0,4.338,4.322s3.865.22,3.865-3.008H22.258s.066,1.215-1.815,1.215A1.835,1.835,0,0,1,18.459,17.3h5.85S24.952,12.391,20.377,12.391Zm-1.941,3.392a2.016,2.016,0,0,1,1.985-1.737,1.674,1.674,0,0,1,1.721,1.737Zm-4.959-1.11a1.958,1.958,0,0,0,1.721-2.15A2.887,2.887,0,0,0,12,9.516H6.126v11.3H12s3.591.11,3.591-3.337C15.594,17.477,15.748,14.673,13.477,14.673ZM8.716,11.522H12s.8,0,.8,1.177-.467,1.347-1,1.347H8.716Zm3.123,7.285H8.716V15.783H12s1.193-.011,1.188,1.556C13.191,18.659,12.306,18.8,11.839,18.808Zm6.108-8.627v1.391H22.61V10.181Z"/></g></g></svg>