<svg xmlns="http://www.w3.org/2000/svg" xmlns:xlink="http://www.w3.org/1999/xlink" width="30" height="30" viewBox="0 0 30 30"><defs><style>.a,.c{fill:#fff;}.a{stroke:#707070;}.b{clip-path:url(#a);}.d{fill:#58585a;}</style><clipPath id="a"><rect class="a" width="30" height="30" transform="translate(1608 20)"/></clipPath></defs><g class="b" transform="translate(-1608 -20)"><g transform="translate(1608 20)"><circle class="c" cx="15" cy="15" r="15" transform="translate(0 0)"/><path class="d" d="M24.188,10.78a7.154,7.154,0,0,1-2.059.564,3.6,3.6,0,0,0,1.577-1.983,7.178,7.178,0,0,1-2.277.87,3.588,3.588,0,0,0-6.11,3.271,10.178,10.178,0,0,1-7.39-3.747,3.589,3.589,0,0,0,1.109,4.787,3.56,3.56,0,0,1-1.624-.449c0,.015,0,.03,0,.045a3.588,3.588,0,0,0,2.876,3.515,3.6,3.6,0,0,1-1.619.062,3.589,3.589,0,0,0,3.349,2.49A7.238,7.238,0,0,1,6.712,21.69a10.2,10.2,0,0,0,15.7-8.591c0-.155,0-.31-.01-.464a7.271,7.271,0,0,0,1.789-1.856Z"/></g></g></svg>