<svg xmlns="http://www.w3.org/2000/svg" xmlns:xlink="http://www.w3.org/1999/xlink" width="30" height="30" viewBox="0 0 30 30"><defs><style>.a,.c{fill:#fff;}.a{stroke:#707070;}.b{clip-path:url(#a);}</style><clipPath id="a"><rect class="a" width="30" height="30" transform="translate(1543 20)"/></clipPath></defs><g class="b" transform="translate(-1543 -20)"><path class="c" d="M30,15A15,15,0,1,0,15,30c.088,0,.176,0,.264-.006V18.322H12.041V14.566h3.223V11.8c0-3.205,1.957-4.951,4.816-4.951A26.178,26.178,0,0,1,22.969,7v3.352H21c-1.553,0-1.857.738-1.857,1.822v2.391h3.721l-.486,3.756H19.143v11.1A15,15,0,0,0,30,15Z" transform="translate(1543 20)"/></g></svg>