<svg xmlns="http://www.w3.org/2000/svg" xmlns:xlink="http://www.w3.org/1999/xlink" width="30" height="30" viewBox="0 0 30 30"><defs><style>.a{fill:#fff;}.b{clip-path:url(#a);}</style><clipPath id="a"><rect class="a" width="30" height="30" transform="translate(290 240)"/></clipPath></defs><g class="b" transform="translate(-290 -240)"><g transform="translate(290 240)"><path class="a" d="M29.183,22.017,25,17.83a2.785,2.785,0,0,0-4.635,1.047,2.849,2.849,0,0,1-3.289,1.794c-2.99-.748-7.027-4.635-7.775-7.775a2.71,2.71,0,0,1,1.794-3.289,2.785,2.785,0,0,0,1.047-4.635L7.951.785a2.986,2.986,0,0,0-4.037,0L1.074,3.626c-2.841,2.99.3,10.915,7.327,17.943s14.952,10.317,17.943,7.327l2.841-2.841A2.986,2.986,0,0,0,29.183,22.017Z"/></g></g></svg>