<svg xmlns="http://www.w3.org/2000/svg" xmlns:xlink="http://www.w3.org/1999/xlink" width="133" height="133" viewBox="0 0 133 133"><defs><style>.a,.c{fill:#e64f1e;}.a{stroke:#707070;}.b{clip-path:url(#a);}</style><clipPath id="a"><rect class="a" width="133" height="133"/></clipPath></defs><g class="b"><g transform="translate(15.316 0)"><path class="c" d="M96.141,53.072l4.934-15.184a1.967,1.967,0,0,0-.716-2.2L87.443,26.3,82.509,11.12a1.966,1.966,0,0,0-1.87-1.359H64.673L51.756.376a1.967,1.967,0,0,0-2.313,0L36.527,9.76H20.562A1.968,1.968,0,0,0,18.69,11.12L13.757,26.3.84,35.687a1.969,1.969,0,0,0-.715,2.2L5.059,53.072.126,68.256a1.968,1.968,0,0,0,.715,2.2L13.757,79.84,18.69,95.024a1.982,1.982,0,0,0,1.155,1.224,3.19,3.19,0,0,0,1.2.136l-8.656,25.658a1.983,1.983,0,0,0,2.737,2.392L29.317,117.4l7.033,14.192a1.983,1.983,0,0,0,3.627-.244l8.8-26.07a3.146,3.146,0,0,0,1.828.864,3.149,3.149,0,0,0,1.829-.864l8.795,26.07a1.984,1.984,0,0,0,3.628.244L71.884,117.4l14.193,7.032a1.984,1.984,0,0,0,2.738-2.392L80.159,96.384a3.192,3.192,0,0,0,1.2-.136,1.978,1.978,0,0,0,1.154-1.224L87.444,79.84l12.916-9.385a1.965,1.965,0,0,0,.715-2.2ZM37.766,125.591l-5.8-11.7A1.968,1.968,0,0,0,29.333,113l-11.7,5.8,7.562-22.415H36.527l8.909,6.473Zm45.8-6.792-11.7-5.8a1.987,1.987,0,0,0-2.637.89l-5.8,11.7-7.67-22.735,8.909-6.473H76.005Zm1.047-41.766a1.969,1.969,0,0,0-.715.984L79.209,92.45H64.034a1.968,1.968,0,0,0-1.156.376L50.6,101.745l-12.277-8.92a1.968,1.968,0,0,0-1.156-.376H21.991L17.3,78.016a1.969,1.969,0,0,0-.715-.984L4.31,68.114,9,53.68a1.967,1.967,0,0,0,0-1.217L4.31,38.032l12.277-8.92a1.969,1.969,0,0,0,.715-.984l4.689-14.433H37.167a1.961,1.961,0,0,0,1.156-.376L50.6,4.4l12.277,8.92a1.961,1.961,0,0,0,1.156.376H79.21L83.9,28.128a1.969,1.969,0,0,0,.715.984l12.277,8.92L92.2,52.464a1.967,1.967,0,0,0,0,1.217l4.689,14.432Zm0,0" transform="translate(-0.029 0)"/><path class="c" d="M65.887,13.25a1.967,1.967,0,1,0-2.645,2.913,33.608,33.608,0,1,1-6.717-4.746A1.968,1.968,0,0,0,58.388,7.95a37.7,37.7,0,1,0,7.5,5.3Zm0,0" transform="translate(9.975 11.94)"/><path class="c" d="M12.015,9.022l-6.3,8.394a1.968,1.968,0,0,0,.08,2.462L30.982,49.258a1.988,1.988,0,0,0,2.988,0L59.153,19.877a1.968,1.968,0,0,0,.08-2.462l-6.3-8.394a1.966,1.966,0,0,0-1.574-.787H13.589a1.966,1.966,0,0,0-1.574.787Zm6.61,11.543L26.856,38.4,11.57,20.564ZM37.788,12.17l3.345,4.46H23.819l3.344-4.46Zm15.594,8.395L38.1,38.4l8.231-17.833Zm-11.39,0L32.476,41.184,22.959,20.564Zm11.732-3.935H46.051l-3.344-4.46H50.38ZM22.246,12.17,18.9,16.629H11.227l3.345-4.46Zm0,0" transform="translate(18.095 28.18)"/></g></g></svg>