<svg xmlns="http://www.w3.org/2000/svg" xmlns:xlink="http://www.w3.org/1999/xlink" width="118" height="118" viewBox="0 0 118 118"><defs><style>.a,.c{fill:#e64f1e;}.a{stroke:#707070;}.b{clip-path:url(#a);}</style><clipPath id="a"><rect class="a" width="118" height="118" transform="translate(0.484 0)"/></clipPath></defs><g class="b" transform="translate(-0.484 0)"><g transform="translate(0.283 -1.334)"><path class="c" d="M105.582,29.334a4.3,4.3,0,0,0,3.04-1.259l11.909-11.909a2.62,2.62,0,0,0-1.687-4.463l-6.337-.4,4.135-4.135a1.777,1.777,0,1,0-2.513-2.513l-4.135,4.135-.4-6.337A2.62,2.62,0,0,0,105.133.768L93.223,12.677a4.3,4.3,0,0,0-1.25,3.309l.409,6.522a56.071,56.071,0,0,0-77.8,80.444,1.777,1.777,0,0,0,2.629-2.392A52.536,52.536,0,0,1,91.949,26.836l-8.108,8.107a41.115,41.115,0,0,0-64.364,49.1h0A41.14,41.14,0,0,0,96.349,73.6a1.777,1.777,0,1,0-3.48-.722,37.587,37.587,0,0,1-70.233,9.534h0a37.1,37.1,0,0,1-4.16-17.177A37.549,37.549,0,0,1,81.33,37.456l-8.035,8.035A26.25,26.25,0,1,0,75.807,48l8.036-8.036a37.426,37.426,0,0,1,9.806,25.048,1.777,1.777,0,0,0,1.777,1.767h.01A1.777,1.777,0,0,0,97.2,65,40.97,40.97,0,0,0,86.356,37.455l8.108-8.108a52.537,52.537,0,0,1-71.426,76.715,1.777,1.777,0,0,0-2.237,2.761,56.065,56.065,0,0,0,91.325-43.587A55.609,55.609,0,0,0,101.1,31.842q-1.12-1.509-2.328-2.928c6.965.438,6.59.419,6.81.419Zm-26.854,35.9A22.692,22.692,0,1,1,70.776,48.01L62.69,56.1A11.312,11.312,0,1,0,65.2,58.609l8.086-8.086A22.567,22.567,0,0,1,78.728,65.235ZM54.806,66.492a1.777,1.777,0,0,0,2.513,0l5.326-5.326a7.751,7.751,0,1,1-2.513-2.513l-5.326,5.326a1.777,1.777,0,0,0,0,2.513ZM95.52,15.763a.745.745,0,0,1,.217-.574L106.179,4.747l.464,7.4-10.68,10.68Zm2.956,9.573,10.68-10.68,7.4.464L106.109,25.562a.743.743,0,0,1-.574.217Z" transform="translate(0 0)"/></g></g></svg>