<svg xmlns="http://www.w3.org/2000/svg" xmlns:xlink="http://www.w3.org/1999/xlink" width="126" height="126" viewBox="0 0 126 126"><defs><style>.a,.c{fill:#e64f1e;}.a{stroke:#707070;}.b{clip-path:url(#a);}</style><clipPath id="a"><rect class="a" width="126" height="126" transform="translate(0.478)"/></clipPath></defs><g class="b" transform="translate(-0.478)"><g transform="translate(0.165 13.776)"><path class="c" d="M11.135,21.089a2.461,2.461,0,0,0,0-4.915c-.039,0-.081,0-.123,0a2.46,2.46,0,0,0,0,4.92C11.056,21.092,11.1,21.092,11.135,21.089Z" transform="translate(27.361 37.947)"/><path class="c" d="M52.137,17.2h0a26.774,26.774,0,0,0-16.029-6.818A27.115,27.115,0,0,0,9.217,26.773a2.46,2.46,0,1,0,4.533,1.912A22.2,22.2,0,0,1,35.727,15.291c14.44,1.17,24.6,15.379,18.961,30.042-2.718,7.061-9.66,14.492-21.029,14.173h-.107c-.039,0-.078,0-.117,0A22.17,22.17,0,0,1,13.747,46.05a2.46,2.46,0,1,0-4.525,1.931A27.16,27.16,0,0,0,34.337,64.435,26.384,26.384,0,0,0,59.28,47.1C63.266,36.742,61.092,24.991,52.137,17.2Z" transform="translate(28.859 19.207)"/><path class="c" d="M20.8,37.214a4.452,4.452,0,0,1-3.194-1.861,2.46,2.46,0,0,0-3.766,3.166,10.2,10.2,0,0,0,4.5,3.2v2.871a2.46,2.46,0,1,0,4.92,0V41.711A7.379,7.379,0,0,0,20.8,27.374a2.46,2.46,0,1,1,0-4.92,3.95,3.95,0,0,1,2.66,1.286A2.46,2.46,0,0,0,26.883,20.2a9.5,9.5,0,0,0-3.622-2.264V15.075a2.46,2.46,0,1,0-4.92,0v2.883A7.379,7.379,0,0,0,20.8,32.294a2.46,2.46,0,0,1,0,4.92Z" transform="translate(42.42 26.57)"/><path class="c" d="M4.259,38.119C10.8,31.1,34.374,8.2,62.975,8.2s52.173,22.9,58.716,29.918a2.46,2.46,0,1,0,3.6-3.355C109.345,17.662,86.481,3.281,62.975,3.281S16.613,17.654.661,34.764a2.46,2.46,0,1,0,3.6,3.355Z" transform="translate(0 -3.281)"/><path class="c" d="M107.1,27.1C94.837,16.186,79.38,6.8,62.975,6.8S31.107,16.19,18.854,27.1A132.667,132.667,0,0,0,.453,47.193a2.46,2.46,0,0,0,0,2.846,132.667,132.667,0,0,0,18.4,20.094c12.258,10.914,27.716,20.3,44.121,20.3s31.868-9.394,44.121-20.3a132.666,132.666,0,0,0,18.4-20.094,2.46,2.46,0,0,0,0-2.846A132.65,132.65,0,0,0,107.1,27.1Zm-3.348,39.428C94,75.189,79.014,85.516,62.975,85.516S31.95,75.189,22.2,66.527A133.966,133.966,0,0,1,5.529,48.616,133.943,133.943,0,0,1,22.2,30.706c9.747-8.663,24.734-18.989,40.773-18.989S94,22.043,103.748,30.706a133.928,133.928,0,0,1,16.674,17.91A133.945,133.945,0,0,1,103.748,66.527Z" transform="translate(0 7.963)"/></g></g></svg>